<?xml version="1.0" encoding="utf-8"?>
<!-- Generator: Adobe Illustrator 13.0.0, SVG Export Plug-In  -->
<!DOCTYPE svg PUBLIC "-//W3C//DTD SVG 1.1//EN" "http://www.w3.org/Graphics/SVG/1.1/DTD/svg11.dtd" [
	<!ENTITY ns_flows "http://ns.adobe.com/Flows/1.0/">
]>
<svg version="1.1"
	 xmlns="http://www.w3.org/2000/svg" xmlns:xlink="http://www.w3.org/1999/xlink" xmlns:a="http://ns.adobe.com/AdobeSVGViewerExtensions/3.0/"
	 x="0px" y="0px" width="3000px" height="1500px" viewBox="0 0 3000 1500" enable-background="new 0 0 3000 1500"
	 xml:space="preserve">
<defs>
</defs>
<path fill="rgba(0, 8, 60, 0.3)" d="M2809.804,103.602c-33.829,0-67.374-2-101.103-2c-22.693,0-48.421-4.62-57.367-3.334c-11.831,1.702-56.191-0.656-68,1.334
	c-24.416,4.115-22.287-4.114-34.667-2c-27.333,4.666-29.332-5.334-40.666-6.667c-23.334,3.333-15.317-2.249-37.334-3.333
	c-15.826-0.78-52.671-3.39-68.655-3.368c-24.678,0.034-54.694-6.06-63.345-7.299c-17.729-2.54-14.945,2.612-32.666,0
	c-17.476-2.577-115.338-9.992-144-9.333c-28.979,0.666-42-6-55.334-6c-11.176,0-25.851-4.066-30.666-5.334
	c-12.667-3.333-39.838-0.144-46,0.667c-25.063,3.297-54.516-5.909-78.664-12c-15.947-4.021-25.336-1.333-33.336-4.667
	c-18.133-7.556-48.367-15.876-68-14c-16.021,1.531-34.476,0.884-48.667,7.334c-14.667,6.666-18.673,4.937-34,0
	c-15.378-4.953-30.743-17.216-36.334-21.334c-7.688-5.662-46.389-8-57-8c-8.513,0-19.684-5.531-28-4
	c-7.777,1.433-22.996,10.887-28.666,14.667c-22,14.667-27.333,2-92,1.333c-20.851-0.215-38.643,1.004-59.559,1
	c-17.072-0.003-185.734,1.844-201.108,5.667c-15.461,3.845-49.382,2.897-64.667,7.333c-18.383,5.335-18.973,11.371-38,10.667
	c-18-0.667-32.666,1.333-46.666,8.667c-10.381,5.438-23.165,1.956-31.334,2.666c-15.953,1.388-14.955,1.997-31,2
	c-12.966,0.003-25.114-0.956-37.017,0.63c-16.869,2.248-74.277,9.448-90.983,12.37c-15.189,2.657-56.551,6.797-71.667,9
	c-40.525,5.906-95.864,15.578-117.118,15.578c-19.345,0-104.045-1.002-116.715,2.422c-18.5,5-38-6.5-106,1.5
	c-13.178,1.551-428.705,17.277-438.014,16.403C63.689,111.063,10.643,115.76,0,117.268V1500h3000V103.995
	C2986.778,103.24,2848.154,103.602,2809.804,103.602z"/>
</svg>
