<?xml version="1.0" encoding="utf-8"?>
<!-- Generator: Adobe Illustrator 13.0.0, SVG Export Plug-In  -->
<!DOCTYPE svg PUBLIC "-//W3C//DTD SVG 1.1//EN" "http://www.w3.org/Graphics/SVG/1.1/DTD/svg11.dtd" [
	<!ENTITY ns_flows "http://ns.adobe.com/Flows/1.0/">
]>
<svg version="1.1"
	 xmlns="http://www.w3.org/2000/svg" xmlns:xlink="http://www.w3.org/1999/xlink" xmlns:a="http://ns.adobe.com/AdobeSVGViewerExtensions/3.0/"
	x="0px" y="-35px" width="3000px" height="1500px" viewBox="0 -35 3000 1500" enable-background="new 0 -35 3000 1500"
	 xml:space="preserve">
<defs>
</defs>
<path fill="rgba(0, 8, 60, 0.3)" d="M3000,84.158c-47.443-0.817-94.721-6.43-142.225-6.43c-92.445,0-184.596-6-276.726-6
	c-41.125,0-173.201,3.288-196.075-0.948c-31.871-5.903-119.484-21.474-131.707-22.029c-29.324-1.333-162.656-2.067-199.269-3.8
	c-23.926-1.133-48.14,0.065-72.147-0.223c-28.249-0.34-144.958-19.454-164.853-14c-8.197,2.247-62.001,6.252-82,6
	c-17.658-0.224-38.839,0.307-56-3c-17.24-3.322-79.936-23.762-97-29c-17.703-5.435-76.679-6.298-93-2
	c-35.095,9.239-65.621,4.102-101.223,10.773c-7.82,1.466-68.147,19.097-83.777,22.227c-18.432,3.69-49.507,0.793-68-1.945
	c-11.676-1.729-23.013-5.498-34.837-6.358c-11.517-0.839-69.614,7.314-80.163,7.304c-22.668-0.024-52.87,7.411-73.757,13.722
	C1012.281,59.014,973.676,59.729,936,59.729c-19.535,0-37.503-3-57-3c-22.667,0-44.079,6.563-65.394,7.777
	C789.036,65.906,678.46,81.764,645,81.729c-30.598-0.032-234.65-3.104-254.697-3c-17.169,0.088-120.957-0.555-155.052,1.052
	c-48.156,2.268-180.335,1.948-198.266,1.948C26.191,81.726,12.365,82.475,0,86.172V1500h3000V84.158z"/>
</svg>
