<?xml version="1.0" encoding="iso-8859-1"?>
<!-- Generator: Adobe Illustrator 13.0.0, SVG Export Plug-In . SVG Version: 6.00 Build 14948)  -->
<!DOCTYPE svg PUBLIC "-//W3C//DTD SVG 1.1//EN" "http://www.w3.org/Graphics/SVG/1.1/DTD/svg11.dtd">
<svg version="1.1" id="&#x30EC;&#x30A4;&#x30E4;&#x30FC;_1"
	 xmlns="http://www.w3.org/2000/svg" xmlns:xlink="http://www.w3.org/1999/xlink" x="0px" y="0px" width="256px" height="256px"
	 viewBox="0 0 256 256" style="enable-background:new 0 0 256 256;" xml:space="preserve">
<circle style="fill:#FCEE5C;" cx="128" cy="128" r="128"/>
<g>
	<polygon style="fill:#FBB03B;" points="154.588,91.767 139.742,96.907 121.064,52.212 142.765,44.696 	"/>
	<polygon style="fill:#FBB03B;" points="152.748,130.777 167.596,125.636 186.273,170.332 164.572,177.848 	"/>

	<rect x="150.319" y="78.11" transform="matrix(0.9449 -0.3272 0.3272 0.9449 -29.1401 57.0632)" style="fill:#FBB03B;" width="9.367" height="74.033"/>
</g>
<path style="fill-rule:evenodd;clip-rule:evenodd;fill:#FFFFFF;" d="M69.659,49.569c-2.449-2.593-6.095-6.272-5.216-9.629
	c1.407-5.373,19.007,0.148,24.073,4.414c5.007,4.216,12.489,16.532,12.438,17.252c3.8-1.281,7.237-2.927,12.037-3.209
	c2.141,0,4.28,0,6.419,0c0.668,0,7.012,0.455,12.037,2.407c9.837,3.82,24.888,12.2,22.87,24.073
	c-1.366,8.03-10.662,8.46-14.042,16.049c0,0.133-0.973,14.942-1.204,15.647c0.915,0.111,5.014-3.071,5.216-3.21
	c2.469-1.688,5.732-3.82,8.826-2.006c6.954,4.078,1.033,14.517-6.419,14.846c-0.747,0.055-7.46,4.616-8.426,5.215
	c-7.058,4.379-10.22,10.376-15.246,15.647c2.351,3.4,4.04,7.434,4.012,13.24c-0.013,2.675,0.069,5.351,0,8.025
	c-0.151,5.855-0.991,11.313-2.006,16.449c1.041,0.431,1.974,0.584,3.611,0.802c4.518,0.602,6.799,2.65,6.419,6.421
	c-0.705,7.008-14.633,8.661-21.666,9.629c-1.234,0.169-8.521,0.572-10.031,0.803c-4.117,0.63-8.86,1.759-13.24,2.407
	c-8.757,1.297-17.904,0.644-23.271-3.21c-1.773-1.273-5.167-5.13-5.617-5.215c-8.051,5.595-20.343-3.598-17.654-12.037
	c1.168-3.664,8.063-3.209,12.438-2.007c-2.973-9.045-6.118-15.424-5.617-26.48c0.94-20.726,14.537-33.133,28.085-43.331
	c4.02-3.026,11.726-7.499,12.438-11.235c0.743-3.899-1.998-6.19-2.808-9.629c-1.447-6.131,0.541-10.422,2.407-16.049
	c-0.324-0.278-7.628,1.277-16.852,0.401c-7.126-0.94-19.344-4.06-20.462-4.413C39.037,67.1,55.456,59.532,64.443,59.602
	c2.14,0.016,5.643-0.188,9.629,0.4c5.092,0.751,7.833,1.767,11.234,3.611c1.342,0.729,3.106,1.174,4.414,2.006
	c-3.209-2.408-2.216-1.78-3.209-2.408c-4.567-3.189-9.462-6.029-13.241-10.03C72.09,51.932,70.84,50.819,69.659,49.569z"/>
<circle style="fill-rule:evenodd;clip-rule:evenodd;fill:#FF0000;" cx="132.968" cy="81.866" r="2.516"/>
<path style="fill-rule:evenodd;clip-rule:evenodd;fill:#FFFFFF;" d="M207.365,182.941l1.901,16.367c0,5.007-2.06,9.065-4.602,9.065
	h-47.811c-2.542,0-4.602-4.059-4.602-9.065l1.901-16.367l-1.901-16.367c0-5.006,2.06-9.065,4.602-9.065h47.811
	c2.542,0,4.602,4.06,4.602,9.065L207.365,182.941z"/>
</svg>
