<?xml version="1.0" encoding="iso-8859-1"?>
<!-- Generator: Adobe Illustrator 15.1.0, SVG Export Plug-In . SVG Version: 6.00 Build 0)  -->
<!DOCTYPE svg PUBLIC "-//W3C//DTD SVG 1.1//EN" "http://www.w3.org/Graphics/SVG/1.1/DTD/svg11.dtd">
<svg version="1.1" id="_x38_" xmlns="http://www.w3.org/2000/svg" xmlns:xlink="http://www.w3.org/1999/xlink" x="0px" y="0px"
	 width="512px" height="512px" viewBox="0 0 512 512" style="enable-background:new 0 0 512 512;" xml:space="preserve">
<g>
	<path style="fill:rgba(159, 45, 0, 0.4);" d="M507.488,308.706c0,0-22.28-57.189-112.764-33.236c82.499-45.242,79.837-130.404,79.837-130.404
		C400.045,126.437,341.5,169.018,341.5,169.018C349.48,62.566,236.041,0,236.041,0c-49.71,10.465-99.414,108.375-98.555,177.425
		c-22.487-11.58-62.263-22.031-130.312-15.088c0,77.176,74.516,138.386,74.516,138.386s-42.583,15.969-77.179,85.159
		c77.179,42.581,151.69,29.274,151.69,29.274l-18.63,45.241c81.562,22.587,117.096-37.257,117.096-37.257
		c47.902,45.242,130.399,21.291,130.399,21.291s0-23.952-34.593-50.564C464.909,412.494,507.488,308.706,507.488,308.706z"/>
	<path style="fill:rgba(159, 45, 0, 0.4);" d="M243.467,398.064c0,0,13.859,43.555,1.979,108.886c0,0,17.817,9.899,19.798,1.979
		c1.979-7.919,9.897-77.21-9.898-124.724L243.467,398.064z"/>
</g>
</svg>
