<?xml version="1.0" encoding="iso-8859-1"?>
<!-- Generator: Adobe Illustrator 15.1.0, SVG Export Plug-In . SVG Version: 6.00 Build 0)  -->
<!DOCTYPE svg PUBLIC "-//W3C//DTD SVG 1.1//EN" "http://www.w3.org/Graphics/SVG/1.1/DTD/svg11.dtd">
<svg version="1.1" id="_x31_1" xmlns="http://www.w3.org/2000/svg" xmlns:xlink="http://www.w3.org/1999/xlink" x="0px" y="0px"
	 width="512px" height="512px" viewBox="0 0 512 512" style="enable-background:new 0 0 512 512;" xml:space="preserve">
<g>
	<path style="fill:rgba(229, 207, 61, 0.4);" d="M354.096,346.418c-25.539-44.111-35.301-99.487,24.07-154.049
		c59.377-54.559,104.307-112.327,99.493-120.353c-4.813-8.021-40.116-19.251-56.165-36.905
		c-16.046-17.652-32.092-20.863-62.584-22.467c-30.487-1.604-59.371-6.417-72.211-11.23c-12.834-4.814-60.975,3.205-57.769,16.045
		c3.211,12.839,24.07,118.748,19.256,126.769c-4.814,8.025-48.141-105.909-62.583-110.724s-24.07-6.417-33.698,3.211
		c-9.628,9.629-40.116,19.257-52.955,44.93c-12.835,25.679-4.814,40.121-19.257,48.141c-14.442,8.025-48.136,38.518-41.719,64.191
		c6.417,25.674-1.607,44.93-3.211,60.975c-1.603,16.051-3.206,40.122,22.468,40.122c25.673,0,189.352-40.122,235.889,3.205
		c46.533,43.326,155.654,192.563,166.885,207.006c11.236,14.441,20.864,3.211,6.422-11.232
		C451.986,479.609,389.402,407.397,354.096,346.418z"/>
</g>
</svg>
