<?xml version="1.0" encoding="iso-8859-1"?>
<!-- Generator: Adobe Illustrator 15.1.0, SVG Export Plug-In . SVG Version: 6.00 Build 0)  -->
<!DOCTYPE svg PUBLIC "-//W3C//DTD SVG 1.1//EN" "http://www.w3.org/Graphics/SVG/1.1/DTD/svg11.dtd">
<svg version="1.1" id="_x31_0" xmlns="http://www.w3.org/2000/svg" xmlns:xlink="http://www.w3.org/1999/xlink" x="0px" y="0px"
	 width="512px" height="512px" viewBox="0 0 512 512" style="enable-background:new 0 0 512 512;" xml:space="preserve">
<g>
	<path style="fill:rgba(239, 64, 29, 1);" d="M291.652,0c-7.637,14.424-119.677,56.754-95.064,171.317c0,0-43.262-45.722-103.512-66.09
		c-22.913,49.22,17.799,124.646,38.166,146.709c-44.127-17.822-93.348-10.185-93.348-10.185s21.217,93.349,100.984,110.321
		c-17.82,11.033-28.854,39.037-28.854,39.037s79.793,36.593,124.769-1.596c10.184,20.368,67.042,48.372,100.138,41.583
		c-1.699-33.097-23.762-60.252-23.762-60.252s101.834-1.697,162.936-86.56c-35.643-14.426-84.863-37.339-135.781-15.274
		c91.651-29.702,102.685-104.38,105.227-134.931c-97.588-11.88-129.835,46.675-133.23,48.372
		c26.309-28.004,20.367-79.771,10.184-105.228C310.32,51.765,291.652,0,291.652,0z"/>
	<path style="fill:rgba(239, 64, 29, 1);" d="M223.839,385.461C218,420.503,229.681,490.586,251.096,512l15.574-7.787
		c0,0-35.041-50.616-25.309-136.273L223.839,385.461z"/>
</g>
</svg>
